<svg width="80" height="23" viewBox="0 0 80 23" fill="none" xmlns="http://www.w3.org/2000/svg">
<rect x="3.28003" y="4.76996" width="68.38" height="18" transform="rotate(-4 3.28003 4.76996)" fill="#FFEDED"/>
<path d="M9.67188 11.1021L10.9766 3.9693H13.6953L11.2812 15.3443H8.4375L6.91406 8.85992L5.42188 15.3443H2.58594L0.164062 3.9693H2.89062L4.19531 11.1021L5.75781 3.9693H8.08594L9.67188 11.1021ZM17.2188 7.79742C17.7812 7.08909 18.5 6.73492 19.375 6.73492C20.3073 6.73492 21.0104 7.01097 21.4844 7.56305C21.9583 8.11513 22.2005 8.93024 22.2109 10.0084V15.3443H19.5703V10.0709C19.5703 9.62295 19.4792 9.29482 19.2969 9.08649C19.1146 8.87295 18.8047 8.76617 18.3672 8.76617C17.8255 8.76617 17.4427 8.93805 17.2188 9.2818V15.3443H14.5859V3.3443H17.2188V7.79742ZM23.3438 11.0396C23.3438 10.1959 23.5078 9.44586 23.8359 8.78961C24.1641 8.12815 24.6354 7.62034 25.25 7.26617C25.8646 6.91201 26.5859 6.73492 27.4141 6.73492C28.6797 6.73492 29.6771 7.12815 30.4062 7.91461C31.1354 8.69586 31.5 9.76097 31.5 11.1099V11.2037C31.5 12.5214 31.1328 13.5683 30.3984 14.3443C29.6693 15.1151 28.6797 15.5005 27.4297 15.5005C26.2266 15.5005 25.2604 15.1412 24.5312 14.4224C23.8021 13.6985 23.4089 12.7193 23.3516 11.4849L23.3438 11.0396ZM25.9766 11.2037C25.9766 11.9849 26.099 12.5578 26.3438 12.9224C26.5885 13.287 26.9505 13.4693 27.4297 13.4693C28.3672 13.4693 28.8464 12.7479 28.8672 11.3052V11.0396C28.8672 9.52399 28.3828 8.76617 27.4141 8.76617C26.5339 8.76617 26.0573 9.41982 25.9844 10.7271L25.9766 11.2037ZM36.2344 13.4693C36.6042 13.4693 36.8906 13.3703 37.0938 13.1724C37.2969 12.9693 37.3958 12.688 37.3906 12.3287H39.8594C39.8594 13.2558 39.526 14.0162 38.8594 14.6099C38.1979 15.2037 37.3438 15.5005 36.2969 15.5005C35.0677 15.5005 34.099 15.1151 33.3906 14.3443C32.6823 13.5735 32.3281 12.5058 32.3281 11.1412V11.0318C32.3281 10.1776 32.4844 9.42503 32.7969 8.77399C33.1146 8.11774 33.5703 7.61513 34.1641 7.26617C34.7578 6.91201 35.4609 6.73492 36.2734 6.73492C37.3724 6.73492 38.2448 7.03961 38.8906 7.64899C39.5365 8.25836 39.8594 9.08388 39.8594 10.1255H37.3906C37.3906 9.68805 37.2839 9.35211 37.0703 9.11774C36.8568 8.88336 36.5703 8.76617 36.2109 8.76617C35.5286 8.76617 35.1302 9.20107 35.0156 10.0709C34.9792 10.3469 34.9609 10.7271 34.9609 11.2115C34.9609 12.0604 35.0625 12.649 35.2656 12.9771C35.4688 13.3052 35.7917 13.4693 36.2344 13.4693ZM45.7344 15.3443C45.6406 15.1724 45.5573 14.9198 45.4844 14.5865C45 15.1959 44.3229 15.5005 43.4531 15.5005C42.6562 15.5005 41.9792 15.261 41.4219 14.7818C40.8646 14.2974 40.5859 13.6907 40.5859 12.9615C40.5859 12.0448 40.9245 11.3521 41.6016 10.8834C42.2786 10.4146 43.263 10.1802 44.5547 10.1802H45.3672V9.73492C45.3672 8.95888 45.0312 8.57086 44.3594 8.57086C43.7344 8.57086 43.4219 8.87815 43.4219 9.49274H40.7891C40.7891 8.67503 41.1354 8.01097 41.8281 7.50055C42.526 6.99013 43.4141 6.73492 44.4922 6.73492C45.5703 6.73492 46.4219 6.99795 47.0469 7.52399C47.6719 8.05003 47.9922 8.77138 48.0078 9.68805V13.4302C48.0182 14.2063 48.138 14.8 48.3672 15.2115V15.3443H45.7344ZM44.0859 13.6255C44.4141 13.6255 44.6849 13.5552 44.8984 13.4146C45.1172 13.274 45.2734 13.1151 45.3672 12.938V11.5865H44.6016C43.6849 11.5865 43.2266 11.9979 43.2266 12.8209C43.2266 13.0604 43.3073 13.2558 43.4688 13.4068C43.6302 13.5526 43.8359 13.6255 44.0859 13.6255ZM54.5859 9.27399L53.7188 9.21149C52.8906 9.21149 52.3594 9.4719 52.125 9.99274V15.3443H49.4922V6.89117H51.9609L52.0469 7.97711C52.4896 7.14899 53.1068 6.73492 53.8984 6.73492C54.1797 6.73492 54.4245 6.76617 54.6328 6.82867L54.5859 9.27399ZM59.4688 15.5005C58.1719 15.5005 57.1224 15.1151 56.3203 14.3443C55.5182 13.5683 55.1172 12.5604 55.1172 11.3209V11.1021C55.1172 10.2375 55.276 9.47451 55.5938 8.81305C55.9167 8.15159 56.3854 7.64117 57 7.2818C57.6146 6.91722 58.3438 6.73492 59.1875 6.73492C60.375 6.73492 61.3125 7.10472 62 7.8443C62.6875 8.57867 63.0312 9.60472 63.0312 10.9224V11.9459H57.7969C57.8906 12.4198 58.0964 12.7922 58.4141 13.063C58.7318 13.3339 59.1432 13.4693 59.6484 13.4693C60.4818 13.4693 61.1328 13.1776 61.6016 12.5943L62.8047 14.0162C62.4766 14.4693 62.0104 14.8313 61.4062 15.1021C60.8073 15.3677 60.1615 15.5005 59.4688 15.5005ZM59.1719 8.76617C58.401 8.76617 57.9427 9.27659 57.7969 10.2974H60.4531V10.0943C60.4635 9.67242 60.3568 9.3469 60.1328 9.11774C59.9089 8.88336 59.5885 8.76617 59.1719 8.76617ZM68.5234 12.9693C68.5234 12.7453 68.4062 12.5657 68.1719 12.4302C67.9375 12.2948 67.4922 12.1542 66.8359 12.0084C66.1797 11.8625 65.638 11.6724 65.2109 11.438C64.7839 11.1985 64.4583 10.9094 64.2344 10.5709C64.0104 10.2323 63.8984 9.8443 63.8984 9.4068C63.8984 8.63076 64.2188 7.99274 64.8594 7.49274C65.5 6.98753 66.3385 6.73492 67.375 6.73492C68.4896 6.73492 69.3854 6.98753 70.0625 7.49274C70.7396 7.99795 71.0781 8.66201 71.0781 9.48492H68.4375C68.4375 8.80784 68.0807 8.4693 67.3672 8.4693C67.0911 8.4693 66.8594 8.54742 66.6719 8.70367C66.4844 8.85472 66.3906 9.04482 66.3906 9.27399C66.3906 9.50836 66.5052 9.69847 66.7344 9.8443C66.9635 9.99013 67.3281 10.1099 67.8281 10.2037C68.3333 10.2974 68.776 10.4094 69.1562 10.5396C70.4271 10.9771 71.0625 11.761 71.0625 12.8912C71.0625 13.662 70.7188 14.2896 70.0312 14.774C69.349 15.2584 68.4635 15.5005 67.375 15.5005C66.651 15.5005 66.0052 15.3703 65.4375 15.1099C64.8698 14.8495 64.4271 14.4953 64.1094 14.0474C63.7917 13.5995 63.6328 13.1282 63.6328 12.6334H66.0938C66.1042 13.024 66.2344 13.3104 66.4844 13.4927C66.7344 13.6698 67.0547 13.7584 67.4453 13.7584C67.8047 13.7584 68.0729 13.6854 68.25 13.5396C68.4323 13.3938 68.5234 13.2037 68.5234 12.9693ZM74.25 11.7427C74.25 10.9823 74.3359 10.3834 74.5078 9.94586C74.6797 9.50315 74.9583 9.12034 75.3438 8.79742C75.7292 8.47451 76.0208 8.18024 76.2188 7.91461C76.4219 7.64378 76.5234 7.3469 76.5234 7.02399C76.5234 6.23753 76.1849 5.8443 75.5078 5.8443C75.1953 5.8443 74.9427 5.95888 74.75 6.18805C74.5573 6.41722 74.4557 6.72711 74.4453 7.11774H71.8047C71.8151 6.07607 72.1432 5.26617 72.7891 4.68805C73.4349 4.10472 74.3411 3.81305 75.5078 3.81305C76.6693 3.81305 77.5677 4.08128 78.2031 4.61774C78.8438 5.1542 79.1641 5.91722 79.1641 6.9068C79.1641 7.33909 79.0781 7.73232 78.9062 8.08649C78.7344 8.44065 78.4583 8.80263 78.0781 9.17242L77.1797 10.0084C76.9245 10.2532 76.7474 10.5058 76.6484 10.7662C76.5495 11.0214 76.4948 11.3469 76.4844 11.7427H74.25ZM73.9297 14.1177C73.9297 13.7323 74.0677 13.4172 74.3438 13.1724C74.625 12.9224 74.974 12.7974 75.3906 12.7974C75.8073 12.7974 76.1536 12.9224 76.4297 13.1724C76.7109 13.4172 76.8516 13.7323 76.8516 14.1177C76.8516 14.5032 76.7109 14.8209 76.4297 15.0709C76.1536 15.3157 75.8073 15.438 75.3906 15.438C74.974 15.438 74.625 15.3157 74.3438 15.0709C74.0677 14.8209 73.9297 14.5032 73.9297 14.1177Z" fill="#FDB406"/>
</svg>
